<?xml version="1.0" encoding="UTF-8" standalone="no"?>
<!DOCTYPE svg PUBLIC "-//W3C//DTD SVG 1.1//EN" "http://www.w3.org/Graphics/SVG/1.1/DTD/svg11.dtd">
<svg xmlns="http://www.w3.org/2000/svg" version="1.1" viewBox="0.00 0.00 512.00 512.00">
<path d="
  M 251.34 0.00
  L 260.84 0.00
  Q 317.19 1.32 365.93 24.84
  Q 412.61 47.36 445.93 84.56
  Q 509.05 155.01 512.00 251.29
  L 512.00 260.85
  Q 509.86 338.29 466.75 401.07
  C 446.31 430.84 419.23 456.31 388.63 474.88
  Q 330.21 510.32 260.65 512.00
  L 251.17 512.00
  Q 194.84 510.68 146.08 487.16
  Q 99.30 464.60 65.94 427.31
  Q 2.95 356.89 0.00 260.69
  L 0.00 251.14
  Q 3.01 155.05 65.94 84.69
  Q 98.51 48.28 144.05 25.82
  Q 193.76 1.31 251.34 0.00
  Z
  M 476.88 256.00
  A 220.88 220.88 0.0 0 0 256.00 35.12
  A 220.88 220.88 0.0 0 0 35.12 256.00
  A 220.88 220.88 0.0 0 0 256.00 476.88
  A 220.88 220.88 0.0 0 0 476.88 256.00
  Z"
/>
<path d="
  M 179.88 238.48
  Q 273.46 238.59 368.10 238.40
  C 375.13 238.38 380.93 238.32 386.15 243.43
  C 397.61 254.64 389.59 273.41 373.75 273.43
  Q 281.71 273.51 179.97 273.52
  Q 179.06 273.52 179.70 274.16
  Q 212.85 307.27 246.14 340.62
  C 260.01 354.52 244.85 376.85 226.81 369.20
  Q 223.90 367.96 216.59 360.65
  Q 163.79 307.84 125.06 269.39
  Q 119.49 263.86 119.26 256.50
  Q 119.03 248.98 124.86 243.15
  Q 171.42 196.55 221.30 146.70
  C 228.21 139.80 238.94 139.36 246.04 146.13
  C 253.45 153.19 253.16 164.39 245.98 171.58
  Q 212.42 205.18 179.65 237.92
  Q 179.09 238.48 179.88 238.48
  Z"
/>
</svg>
