<?xml version="1.0" encoding="UTF-8" standalone="no"?>
<!DOCTYPE svg PUBLIC "-//W3C//DTD SVG 1.1//EN" "http://www.w3.org/Graphics/SVG/1.1/DTD/svg11.dtd">
<svg xmlns="http://www.w3.org/2000/svg" version="1.1" viewBox="0.00 0.00 512.00 512.00">
<path d="
  M 253.56 0.00
  L 258.55 0.00
  Q 276.91 1.39 290.63 15.12
  Q 393.83 118.29 497.01 221.49
  Q 510.96 235.43 512.00 254.62
  L 512.00 257.54
  Q 510.20 282.11 490.97 295.16
  C 480.62 302.17 469.80 303.55 457.59 303.10
  Q 457.13 303.08 457.13 303.54
  Q 457.12 379.97 457.13 455.18
  Q 457.13 479.54 441.00 495.75
  Q 426.16 510.66 404.23 512.00
  L 318.40 512.00
  C 310.56 510.32 305.28 504.72 305.27 496.83
  Q 305.19 436.18 305.28 377.85
  C 305.31 362.90 294.79 351.36 279.50 351.33
  Q 257.40 351.30 236.85 351.32
  Q 228.82 351.32 225.72 352.09
  C 217.66 354.10 211.02 360.23 208.15 368.06
  Q 206.70 372.01 206.71 378.33
  Q 206.74 436.15 206.71 496.86
  C 206.71 504.75 201.24 510.43 193.43 512.00
  L 107.64 512.00
  Q 85.08 510.35 70.42 495.12
  C 60.24 484.54 54.84 471.03 54.83 456.29
  Q 54.79 379.64 54.82 303.55
  A 0.44 0.43 89.4 0 0 54.38 303.11
  Q 50.03 303.23 45.30 303.05
  C 20.60 302.08 1.82 282.82 0.00 258.65
  L 0.00 253.14
  Q 1.51 235.01 14.25 222.25
  Q 118.16 118.28 222.08 14.33
  Q 235.05 1.36 253.56 0.00
  Z"
/>
</svg>
