<?xml version="1.0" encoding="UTF-8" standalone="no"?>
<!DOCTYPE svg PUBLIC "-//W3C//DTD SVG 1.1//EN" "http://www.w3.org/Graphics/SVG/1.1/DTD/svg11.dtd">
<svg xmlns="http://www.w3.org/2000/svg" version="1.1" viewBox="0.00 0.00 512.00 512.00">
<path d="
  M 253.53 0.00
  L 258.58 0.00
  Q 298.81 1.96 326.07 29.32
  C 344.67 47.98 355.23 73.48 354.92 99.86
  A 1.14 1.14 0.0 0 0 356.07 101.02
  Q 377.87 100.96 399.35 101.03
  C 418.67 101.09 434.36 115.23 435.91 134.73
  Q 446.98 274.07 458.15 414.27
  Q 459.13 426.65 458.81 432.99
  C 456.58 476.60 421.40 510.13 377.99 512.00
  L 133.89 512.00
  Q 93.50 509.71 69.97 479.01
  Q 54.30 458.55 53.17 432.25
  Q 52.89 425.66 53.90 413.12
  Q 65.43 269.84 76.04 134.94
  C 77.25 119.51 87.28 106.90 102.27 102.43
  Q 108.02 100.72 121.89 100.91
  Q 139.71 101.15 156.51 100.94
  Q 157.03 100.93 157.03 100.41
  Q 157.16 64.75 178.41 37.77
  Q 184.61 29.89 192.29 23.43
  Q 218.28 1.53 253.53 0.00
  Z
  M 187.93 101.00
  L 324.17 101.00
  A 0.76 0.76 0.0 0 0 324.93 100.24
  L 324.93 99.10
  A 68.94 68.25 90.0 0 0 256.68 30.16
  L 255.42 30.16
  A 68.94 68.25 90.0 0 0 187.17 99.10
  L 187.17 100.24
  A 0.76 0.76 0.0 0 0 187.93 101.00
  Z
  M 185.96 100.99
  L 158.08 100.99
  A 1.09 1.09 0.0 0 0 156.99 102.08
  L 156.99 167.61
  A 15.26 14.96 -90.0 0 0 171.95 182.87
  L 172.09 182.87
  A 15.26 14.96 90.0 0 0 187.05 167.61
  L 187.05 102.08
  A 1.09 1.09 0.0 0 0 185.96 100.99
  Z
  M 353.76 100.98
  L 326.20 100.98
  A 1.24 1.24 0.0 0 0 324.96 102.22
  L 324.96 167.63
  A 15.23 14.94 -90.0 0 0 339.90 182.86
  L 340.06 182.86
  A 15.23 14.94 90.0 0 0 355.00 167.63
  L 355.00 102.22
  A 1.24 1.24 0.0 0 0 353.76 100.98
  Z
  M 235.74 320.92
  Q 235.40 321.25 235.06 320.92
  Q 222.73 308.55 209.99 295.87
  C 198.25 284.18 179.40 296.08 185.18 311.62
  Q 186.40 314.92 191.80 320.18
  Q 206.60 334.58 221.28 349.66
  C 227.04 355.58 232.68 359.49 240.86 356.33
  Q 244.04 355.10 247.84 351.28
  Q 286.04 313.01 322.87 276.21
  C 337.83 261.27 316.51 240.11 301.84 254.78
  Q 269.57 287.06 235.74 320.92
  Z"
/>
</svg>
